<svg width="64" height="64" viewBox="0 0 64 64" fill="none" xmlns="http://www.w3.org/2000/svg">
<rect width="64" height="64" rx="24" fill="url(#paint0_linear_57_11175)"/>
<path d="M35.9299 30.1251C36.1999 30.6651 36.9199 31.2051 37.5199 31.2951L41.105 31.8951C43.4 32.2851 43.9399 33.9351 42.2899 35.5851L39.5 38.3751C39.035 38.8401 38.7649 39.7551 38.9149 40.4151L39.71 43.8801C40.34 46.6101 38.885 47.6751 36.47 46.2501L33.1099 44.2551C32.4949 43.8951 31.505 43.8951 30.89 44.2551L27.5299 46.2501C25.1149 47.6751 23.6599 46.6101 24.2899 43.8801L25.085 40.4151C25.235 39.7701 24.9649 38.8551 24.4999 38.3751L21.71 35.5851C20.06 33.9351 20.5999 32.2701 22.8949 31.8951L26.48 31.2951C27.08 31.1901 27.8 30.6651 28.07 30.1251L30.05 26.1651C31.115 24.0201 32.8849 24.0201 33.9499 26.1651L35.9299 30.1251Z" fill="url(#paint1_linear_57_11175)"/>
<g opacity="0.6">
<path d="M21.875 27.5V17C21.875 16.385 22.385 15.875 23 15.875C23.615 15.875 24.125 16.385 24.125 17V27.5C24.125 28.115 23.615 28.625 23 28.625C22.385 28.625 21.875 28.115 21.875 27.5Z" fill="url(#paint2_linear_57_11175)"/>
</g>
<g opacity="0.6">
<path d="M39.875 27.5V17C39.875 16.385 40.385 15.875 41 15.875C41.615 15.875 42.125 16.385 42.125 17V27.5C42.125 28.115 41.615 28.625 41 28.625C40.385 28.625 39.875 28.115 39.875 27.5Z" fill="url(#paint3_linear_57_11175)"/>
</g>
<g opacity="0.6">
<path d="M30.875 20V17C30.875 16.385 31.385 15.875 32 15.875C32.615 15.875 33.125 16.385 33.125 17V20C33.125 20.615 32.615 21.125 32 21.125C31.385 21.125 30.875 20.615 30.875 20Z" fill="url(#paint4_linear_57_11175)"/>
</g>
<defs>
<linearGradient id="paint0_linear_57_11175" x1="-65.8227" y1="24.5699" x2="22.0963" y2="107.542" gradientUnits="userSpaceOnUse">
<stop stop-color="#FD371F"/>
<stop offset="1" stop-color="#FF844B"/>
</linearGradient>
<linearGradient id="paint1_linear_57_11175" x1="9.57934" y1="35.6466" x2="31.7592" y2="57.9932" gradientUnits="userSpaceOnUse">
<stop stop-color="white"/>
<stop offset="0.976463" stop-color="white" stop-opacity="0.8"/>
</linearGradient>
<linearGradient id="paint2_linear_57_11175" x1="20.7573" y1="22.2084" x2="25.0929" y2="22.9735" gradientUnits="userSpaceOnUse">
<stop stop-color="white"/>
<stop offset="0.976463" stop-color="white" stop-opacity="0.8"/>
</linearGradient>
<linearGradient id="paint3_linear_57_11175" x1="38.7573" y1="22.2084" x2="43.0929" y2="22.9735" gradientUnits="userSpaceOnUse">
<stop stop-color="white"/>
<stop offset="0.976463" stop-color="white" stop-opacity="0.8"/>
</linearGradient>
<linearGradient id="paint4_linear_57_11175" x1="29.7573" y1="18.4829" x2="33.5342" y2="20.1015" gradientUnits="userSpaceOnUse">
<stop stop-color="white"/>
<stop offset="0.976463" stop-color="white" stop-opacity="0.8"/>
</linearGradient>
</defs>
</svg>
