<svg width="62" height="64" viewBox="0 0 62 64" fill="none" xmlns="http://www.w3.org/2000/svg">
<rect width="64" height="64" rx="24" fill="url(#paint0_linear_57_11208)"/>
<g opacity="0.6">
<path d="M40.7144 25.4451L38.6294 24.2451L34.3244 21.7551C33.0044 20.9901 30.9944 20.9901 29.6744 21.7551L25.3694 24.2451L23.2844 25.4601L23.0144 25.6101C20.3294 27.4101 20.1494 27.7401 20.1494 30.6351V37.5501C20.1494 40.4451 20.3294 40.7751 23.0744 42.6201L29.6744 46.4301C30.3344 46.8201 31.1594 47.0001 31.9994 47.0001C32.8244 47.0001 33.6644 46.8201 34.3244 46.4301L40.9844 42.5751C43.6694 40.7751 43.8494 40.4451 43.8494 37.5501V30.6351C43.8494 27.7401 43.6694 27.4101 40.9244 25.5651L40.7144 25.4451Z" fill="url(#paint1_linear_57_11208)"/>
</g>
<path d="M25.3692 24.245L29.4792 21.875L29.6742 21.755C30.9942 20.99 33.0042 20.99 34.3242 21.755L34.5192 21.875L38.6292 24.245L40.7142 25.445V22.235C40.7142 18.86 38.8542 17 35.4792 17H28.5042C25.1292 17 23.2842 18.86 23.2842 22.235V25.46L25.3692 24.245Z" fill="url(#paint2_linear_57_11208)"/>
<path d="M35.3296 35.15C35.1796 35.315 35.0746 35.645 35.0896 35.87L35.1796 37.34C35.2396 38.24 34.5946 38.705 33.7546 38.375L32.3896 37.835C32.1796 37.76 31.8196 37.76 31.6096 37.835L30.2446 38.375C29.4046 38.705 28.7596 38.24 28.8196 37.34L28.9096 35.87C28.9246 35.645 28.8196 35.315 28.6696 35.15L27.7396 34.01C27.1546 33.32 27.4096 32.555 28.2796 32.33L29.7046 31.97C29.9296 31.91 30.1996 31.7 30.3196 31.505L31.1146 30.275C31.6096 29.51 32.3896 29.51 32.8846 30.275L33.6796 31.505C33.7996 31.7 34.0696 31.91 34.2946 31.97L35.7196 32.33C36.5896 32.555 36.8446 33.32 36.2596 34.01L35.3296 35.15Z" fill="url(#paint3_linear_57_11208)"/>
<defs>
<linearGradient id="paint0_linear_57_11208" x1="-30.2992" y1="30.2992" x2="30.2992" y2="90.8977" gradientUnits="userSpaceOnUse">
<stop stop-color="#69E0C7"/>
<stop offset="1" stop-color="#69E0C7" stop-opacity="0.6"/>
</linearGradient>
<linearGradient id="paint1_linear_57_11208" x1="8.37678" y1="34.0065" x2="33.9332" y2="57.4657" gradientUnits="userSpaceOnUse">
<stop stop-color="white"/>
<stop offset="0.976463" stop-color="white" stop-opacity="0.8"/>
</linearGradient>
<linearGradient id="paint2_linear_57_11208" x1="14.6261" y1="21.2024" x2="21.2293" y2="34.8069" gradientUnits="userSpaceOnUse">
<stop stop-color="white"/>
<stop offset="0.976463" stop-color="white" stop-opacity="0.8"/>
</linearGradient>
<linearGradient id="paint3_linear_57_11208" x1="22.8779" y1="34.0626" x2="31.5931" y2="43.1466" gradientUnits="userSpaceOnUse">
<stop stop-color="white"/>
<stop offset="0.976463" stop-color="white" stop-opacity="0.8"/>
</linearGradient>
</defs>
</svg>
